<svg id="Group_498" data-name="Group 498" xmlns="http://www.w3.org/2000/svg" viewBox="0 0 45.098 36.296">
  <defs>
    <style>
      .cls-1 {
        fill: #403e3b;
      }
    </style>
  </defs>
  <path id="Path_420" data-name="Path 420" class="cls-1" d="M39.234,32.944c.184-.085.278-.119.364-.17q1.668-.983,3.333-1.971a3.358,3.358,0,0,0,1.613-2.435,31.012,31.012,0,0,0,.389-8.962,22.162,22.162,0,0,0-2.671-8.6A20.238,20.238,0,0,0,30.953,1.44,27.891,27.891,0,0,0,20.138.048c-.576.03-1.155.064-1.726.148a2.483,2.483,0,0,0-2.086,2.01c-.2,1.3-.356,2.6-.506,3.906-.03.263-.11.368-.372.407-.762.112-1.526.219-2.277.386A35.009,35.009,0,0,0,1.287,12.1,3.006,3.006,0,0,0,.141,15.5,35.232,35.232,0,0,0,5.51,26.309a26.288,26.288,0,0,0,5.518,5.541c.119.087.249.159.365.232,0-1.94.069-3.843-.025-5.738-.06-1.2-.664-1.657-1.879-1.772l-.135-.013a.415.415,0,0,1-.416-.445c-.008-.238-.006-.476,0-.713.005-.47.117-.588.579-.594.532-.006,1.065-.02,1.6,0,.321.015.394-.1.4-.406a10.741,10.741,0,0,1,1.3-5.217A5.555,5.555,0,0,1,15.921,14.5a6.966,6.966,0,0,1,4.569.04,2.846,2.846,0,0,1,1.879,3.923,1.074,1.074,0,0,1-.855.772c-.942.2-1.878.425-2.819.625a.475.475,0,0,1-.39-.068c-.07-.088-.043-.275-.018-.411a1.5,1.5,0,0,1,.153-.339,3.883,3.883,0,0,0,.4-1.807A1.352,1.352,0,0,0,17.1,15.839a2.123,2.123,0,0,0-.828.612,3.1,3.1,0,0,0-.688,1.817c-.1,1.365-.127,2.734-.2,4.1-.018.337.076.452.431.444,1.087-.023,2.174-.011,3.262-.007.489,0,.606.121.61.6q0,.459,0,.917c0,.5-.123.616-.63.617-1.076,0-2.152.016-3.228-.007-.349-.007-.437.1-.435.44.014,2.367.007,4.734.008,7.1a2.452,2.452,0,0,0,1.855,2.705,20.817,20.817,0,0,0,4.441,1.111,2.746,2.746,0,0,0,.309,0c-.122-.1-.179-.158-.241-.205a7.479,7.479,0,0,1-3.079-5.841,7.093,7.093,0,0,1,3.584-6.785,7.178,7.178,0,0,1,8.3.645,7.664,7.664,0,0,1,.567,11.577c-.074.069-.14.146-.209.219l.054.086c.873-.231,1.751-.444,2.617-.7,1.232-.362,1.447-.648,1.544-1.931.006-.079.012-.158.012-.237,0-3.873.007-7.747-.017-11.62a7.448,7.448,0,0,0-.262-1.737,1.425,1.425,0,0,0-1.006-1.022c-.757-.241-.759-.237-.759-1.045q0-.034,0-.068c0-.588,0-.592.572-.788a19.7,19.7,0,0,0,5.193-2.559.986.986,0,0,1,.274-.092,1.81,1.81,0,0,1,.085.276,2.1,2.1,0,0,1,0,.305q0,8.8,0,17.6Zm-9.254-1.763a8.806,8.806,0,0,0-2.891-5.538,2.9,2.9,0,0,0-2.9-.724,2.929,2.929,0,0,0-2.061,3.055,8.969,8.969,0,0,0,2.7,6.235,3,3,0,0,0,3.029.947C29.31,34.767,30.137,33.47,29.981,31.181Z" transform="translate(0 0)"/>
  <path id="Path_421" data-name="Path 421" class="cls-1" d="M39.234,32.944V32.37q0-8.8,0-17.6a2.1,2.1,0,0,0,0-.305,1.81,1.81,0,0,0-.085-.276.986.986,0,0,0-.274.092,19.7,19.7,0,0,1-5.193,2.559c-.573.2-.571.2-.572.788q0,.034,0,.068c0,.808,0,.8.759,1.045a1.425,1.425,0,0,1,1.006,1.022,7.448,7.448,0,0,1,.262,1.737c.024,3.873.016,7.747.017,11.62,0,.079-.006.158-.012.237-.1,1.283-.312,1.569-1.544,1.931-.866.254-1.744.467-2.617.7l-.054-.086c.07-.073.136-.15.209-.219a7.664,7.664,0,0,0-.567-11.577,7.178,7.178,0,0,0-8.3-.645,7.093,7.093,0,0,0-3.584,6.785,7.479,7.479,0,0,0,3.079,5.841c.062.048.119.1.241.205a2.748,2.748,0,0,1-.309,0,20.817,20.817,0,0,1-4.441-1.111A2.452,2.452,0,0,1,15.4,32.475c0-2.367.007-4.734-.008-7.1,0-.341.086-.448.435-.44,1.075.022,2.152.01,3.228.007.507,0,.626-.122.63-.617q0-.459,0-.917c0-.478-.122-.6-.61-.6-1.087,0-2.175-.016-3.262.007-.354.008-.449-.107-.431-.444.074-1.367.1-2.736.2-4.1a3.1,3.1,0,0,1,.688-1.817,2.123,2.123,0,0,1,.828-.612,1.352,1.352,0,0,1,1.745,1.393,3.883,3.883,0,0,1-.4,1.807,1.5,1.5,0,0,0-.153.339c-.025.136-.052.323.018.411a.475.475,0,0,0,.39.068c.942-.2,1.878-.425,2.819-.625a1.074,1.074,0,0,0,.855-.772,2.846,2.846,0,0,0-1.879-3.923,6.966,6.966,0,0,0-4.569-.04,5.555,5.555,0,0,0-3.113,2.692,10.741,10.741,0,0,0-1.3,5.217c-.005.305-.079.421-.4.406-.531-.025-1.064-.011-1.6,0-.462.005-.574.124-.579.594,0,.238,0,.476,0,.713a.415.415,0,0,0,.416.445l.135.013c1.216.115,1.819.569,1.879,1.772.094,1.9.025,3.8.025,5.738-.115-.073-.246-.144-.365-.232A26.288,26.288,0,0,1,5.51,26.309,35.232,35.232,0,0,1,.141,15.5a3.006,3.006,0,0,1,1.145-3.4A35.009,35.009,0,0,1,13.171,6.9c.751-.167,1.516-.273,2.277-.386.262-.039.342-.144.372-.407.15-1.3.3-2.609.506-3.906A2.483,2.483,0,0,1,18.413.2c.57-.083,1.149-.118,1.726-.148A27.891,27.891,0,0,1,30.953,1.44,20.238,20.238,0,0,1,42.262,10.8a22.162,22.162,0,0,1,2.671,8.6,31.012,31.012,0,0,1-.389,8.962A3.358,3.358,0,0,1,42.931,30.8q-1.666.986-3.333,1.971C39.513,32.825,39.418,32.859,39.234,32.944Z" transform="translate(0 0)"/>
  <path id="Path_422" data-name="Path 422" class="cls-1" d="M333.592,371.238c.158,2.317-.679,3.63-2.147,4.024a3.039,3.039,0,0,1-3.067-.959,9.08,9.08,0,0,1-2.733-6.312,2.965,2.965,0,0,1,2.087-3.093,2.933,2.933,0,0,1,2.933.733A8.915,8.915,0,0,1,333.592,371.238Z" transform="translate(-303.572 -340.12)"/>
</svg>
